<?xml version="1.0" encoding="utf-8"?>
<!-- Generator: Adobe Illustrator 26.0.0, SVG Export Plug-In . SVG Version: 6.00 Build 0)  -->
<svg version="1.1" id="Layer_1" xmlns="http://www.w3.org/2000/svg" xmlns:xlink="http://www.w3.org/1999/xlink" x="0px" y="0px"
	 viewBox="0 0 1974.86 1947.43" style="enable-background:new 0 0 1974.86 1947.43;" xml:space="preserve">
<style type="text/css">
	.st0{display:none;}
	.st1{display:inline;}
	.st2{fill:#97FFF0;}
	.st3{display:none;opacity:0.2;}
	.st4{fill:#16044E;}
	.st5{fill:#FEFFFE;}
	.st6{fill:#F9A528;}
	.st7{opacity:0.4;}
	.st8{fill:#FBFBFB;}
	.st9{fill:#FF8AA3;}
	.st10{opacity:0.2;}
	.st11{fill:#FF6C6C;}
	.st12{opacity:0.6;}
	.st13{fill:#FFFFFF;}
	.st14{fill:#FF1A1A;}
	.st15{fill:#733AC8;}
	.st16{fill:url(#SVGID_1_);}
	.st17{fill:#BCAAE8;}
	.st18{fill:url(#SVGID_00000054982037720553456050000006855632207467545000_);}
	.st19{fill:url(#SVGID_00000106868125060908798640000009126662138641084292_);}
	.st20{fill:url(#SVGID_00000078766560163728025620000018258004411670101403_);}
	.st21{fill:url(#SVGID_00000117670810704570054870000002521917415150794372_);}
	.st22{fill:url(#SVGID_00000151539788539073470370000011503306497575049378_);}
	.st23{fill:#FF7189;}
	.st24{fill:url(#SVGID_00000052099129862632706040000004533515968644462476_);}
	.st25{fill:url(#SVGID_00000074432380584532297450000000527388980993037753_);}
	.st26{fill:url(#SVGID_00000003081056208385858860000008428805857635441086_);}
	.st27{fill:#BCBEC0;}
	.st28{fill:url(#SVGID_00000171701044465671159440000001778726145738142087_);}
	.st29{fill:url(#SVGID_00000035501587300057314400000017985149780783410843_);}
	.st30{fill:url(#SVGID_00000102545614072213309800000010725747627025524873_);}
	.st31{fill:url(#SVGID_00000085246186230265712630000013460215938846128045_);}
	.st32{fill:url(#SVGID_00000076575428737610117510000008461035496978640040_);}
	.st33{fill:url(#SVGID_00000176042744317625835560000004260631014656678064_);}
</style>
<g>
	<g class="st0">
		<g class="st1">
			<rect x="-912.5" y="-411.93" class="st2" width="3999" height="3999"/>
		</g>
	</g>
	<g id="Cute_kishu_dog_1_">
		<g class="st3">
			<g class="st1">
				<g>
					<path class="st4" d="M1065.58,2765.26c-509.59,0-922.69,59.65-922.69,133.23c0,73.58,413.1,133.23,922.69,133.23
						c46.3,0,21.25,0.95,65.72,0c77.09-1.65,100.29,98.75,172.62,110.47c154.21,24.99,276.51-106.08,363.19-180.8
						c38.47-33.16,486.76-24.15,486.76-56.03C2153.87,2831.78,1575.17,2765.26,1065.58,2765.26z"/>
				</g>
			</g>
		</g>
		<g id="Body_6_" class="st0">
			<g class="st1">
				<g>
					<g>
						<g>
							<g>
								<path class="st5" d="M367.41,2489.31c-30.11-56.46-110.4-106.64-210.76-33.87c-100.36,72.76-57.71,318.65-22.58,383.89
									c35.13,65.23,124.23,112.77,273.49,77.78c47.63-11.17,84.5-19.03,113.82-24.49c13.53-94.19,64.3-178.9,116.76-259.75
									l-147.78-172.41L367.41,2489.31z"/>
							</g>
						</g>
					</g>
					<g>
						<g>
							<g>
								<path class="st6" d="M521.37,2892.61c62.55-11.65,90.59-12.35,114.51-10.64c35.13,2.51,148.04,32.62,215.78,0
									l-213.53-249.12C585.67,2713.71,534.91,2798.43,521.37,2892.61z"/>
							</g>
						</g>
					</g>
					<g class="st7">
						<g>
							<g>
								<path class="st8" d="M141.59,2480.54c-52.69,50.2-41.4,178.13-14.53,258.58c-4.23-20.65-9.3-180.82,50.58-229.74
									c59.89-48.93,108.22-26.34,160.91,0c0,0,3.76-31.36,8.04-41.4C275.6,2393.96,194.28,2430.34,141.59,2480.54z"/>
							</g>
						</g>
					</g>
					<g>
						<g>
							<g>
								<g>
									<g>
										<path class="st9" d="M191.35,2670.43c-30.02,7.87-46.45,49.68-36.7,93.4c9.75,43.72,41.99,72.77,72.01,64.91
											c30.02-7.87,46.45-49.68,36.7-93.4C253.6,2691.62,221.36,2662.56,191.35,2670.43z"/>
									</g>
								</g>
							</g>
						</g>
						<g class="st10">
							<g>
								<g>
									<path class="st4" d="M289.63,2673.98c-29.96,96.96-129.97,110.97-153.22,29.01c1.02,45.9,11.87,124.78,54.53,172.37
										c42.65,47.59,109.34,40.86,109.34,40.86S263.7,2764.57,289.63,2673.98z"/>
								</g>
							</g>
						</g>
						<g>
							<g>
								<g>
									<g>
										<path class="st9" d="M182.43,2538.02c-13.72,1.07-23.26,20.77-21.3,44.01c1.96,23.24,14.67,41.21,28.39,40.15
											c13.72-1.07,23.26-20.77,21.3-44.01C208.86,2554.93,196.15,2536.96,182.43,2538.02z"/>
									</g>
								</g>
							</g>
						</g>
						<g>
							<g>
								<g>
									<g>
										<path class="st9" d="M266.27,2561.68c-13.71-2.14-26.57,14.83-28.73,37.91c-2.16,23.08,7.2,43.52,20.9,45.67
											c13.71,2.14,26.57-14.83,28.73-37.91C289.33,2584.27,279.98,2563.83,266.27,2561.68z"/>
									</g>
								</g>
							</g>
						</g>
						<g>
							<g>
								<g>
									<g>
										<g>
											<path class="st11" d="M99.15,2568.2c-5.12,31.88-5.86,66.45-3.69,100.25c1.45,0.24,2.92,0.37,4.39,0.25
												c16.58-1.29,28.09-25.09,25.73-53.17C123.6,2592,112.47,2572.98,99.15,2568.2z"/>
										</g>
									</g>
								</g>
							</g>
						</g>
						<g class="st12">
							<g>
								<g>
									<g>
										<g>
											<path class="st13" d="M99.15,2568.2c-5.12,31.88-5.86,66.45-3.69,100.25c1.45,0.24,2.92,0.37,4.39,0.25
												c16.58-1.29,28.09-25.09,25.73-53.17C123.6,2592,112.47,2572.98,99.15,2568.2z"/>
										</g>
									</g>
								</g>
							</g>
						</g>
					</g>
					<g>
						<g>
							<g>
								<path class="st4" d="M378.16,2463.59c-21.85-31.79-54.83-54.96-91-63.31c-32.15-7.43-83.19-7.05-143.76,36.87
									c-114.76,83.2-65.78,344.96-29.21,412.88c35.58,66.07,106.87,101.36,198.76,101.36c31.09,0,64.55-4.04,99.77-12.3
									c152.23-35.69,191.67-36.71,221.56-34.59c6.47,0.47,17.29,2.22,29.81,4.25c51.49,8.36,137.66,22.34,197.37-6.42l26.46-12.74
									l-389.36-454.25L378.16,2463.59z M671.32,2864.17c-14.16-2.29-25.34-4.11-33.83-4.71c-41.24-2.94-90.91,1.86-235.09,35.67
									c-118.22,27.71-211.11,2.86-248.46-66.51c-32.14-59.68-71.17-291.73,15.95-354.9c29.35-21.27,57.73-31.98,84.7-31.98
									c7.58,0,15.05,0.85,22.4,2.54c29.13,6.72,55.48,27.53,70.48,55.64l8.17,15.33l126.49-29.69l330.31,385.36
									C766.84,2879.67,708.83,2870.25,671.32,2864.17z"/>
							</g>
						</g>
					</g>
				</g>
			</g>
			<g class="st1">
				<g>
					<g>
						<g>
							<g>
								<path class="st6" d="M2162.36,2233.35c-8.06-12.25-16.75-23.6-26.05-33.84c-99.95-109.94-247.66-136.96-379.72-62.24
									c-33.7,19.07-66.4,44.65-97,77.29c-150.54,160.58-44.7,324.36,22.58,367.16c67.28,42.8,173.13,21.74,178.14-18.4
									c5.02-40.15-52.69-22.58-40.14-74.02c12.55-51.44,100.36-41.4,100.36,33.87c0,75.27-42.65,176.33-208.25,150.89
									l-47.09,92.61l25.37,16.86c0,0,158.94,85.72,316.68-18.28c161.1-106.21,198.26-289.22,174.57-439.82
									C2176.39,2290.98,2169.6,2260.28,2162.36,2233.35z"/>
							</g>
						</g>
					</g>
					<g>
						<g>
							<g>
								<path class="st5" d="M2181.81,2325.44c23.69,150.6-13.47,333.61-174.57,439.82c-157.74,103.99-316.68,18.28-316.68,18.28
									l-25.37-16.86l-5.71,11.23l-32.51,63.92c117.93,82.8,318.65,97.85,484.25-35.13c153.31-123.12,151.77-420.41,51.14-573.35
									C2169.6,2260.28,2176.39,2290.98,2181.81,2325.44z"/>
							</g>
						</g>
					</g>
				</g>
				<g class="st7">
					<g>
						<g>
							<path class="st8" d="M2068.56,2146.81c-140.34-73.83-300.99-34.17-394.71,53.17l22.61,46.66
								c82.72-66.37,137.92-111.54,283.44-89.79c145.53,21.75,235.14,226.74,228.8,384.35
								C2232.49,2436.2,2208.9,2220.64,2068.56,2146.81z"/>
						</g>
					</g>
				</g>
				<g class="st10">
					<g>
						<g>
							<path class="st4" d="M1978.24,2765.26c-140.51,26.3-197.38-32.99-200.73-74.65l-32.72-13.05c0,0-64.3,128.31-89.47,170.7
								c17.5,40.85,202.48,79.61,354.7,0c152.22-79.61,186.18-227.94,177.31-348.06
								C2168.09,2598.45,2118.74,2738.96,1978.24,2765.26z"/>
						</g>
					</g>
				</g>
				<g>
					<g>
						<g>
							<path class="st4" d="M1912.94,2072.47c-0.79-0.01-1.57-0.01-2.36-0.01c-95.94,0-190.85,44.92-267.48,126.65
								c-79.27,84.55-87.77,166.8-80.94,220.91c10.57,83.76,63.33,152.42,107.88,180.76c54.95,34.96,129.77,32.57,172.26,12.57
								c23.64-11.13,37.99-27.9,40.41-47.23c4.2-33.55-18.94-46.61-31.36-53.63c-11.95-6.75-11.95-6.75-9.25-17.84
								c3.94-16.17,20.96-14.97,24.33-14.55c14.54,1.74,31.52,14.07,31.52,43.07c0,20.23-4.03,70.73-41.36,102.76
								c-31.12,26.71-78.53,35.39-140.89,25.81l-16.15-2.48l-101.59,199.79l16.03,11.26c58.45,41.04,138.58,67.92,226.27,67.92
								c92.17,0,192.69-29.71,285.1-103.92c73.27-58.84,118.87-158.13,128.38-279.59c10.94-139.6-28.6-281.07-100.72-360.41
								C2088.08,2112.88,2002.82,2073.17,1912.94,2072.47z M2208.71,2541.2c-8.53,108.9-48.18,196.94-111.63,247.89
								c-154.16,123.8-332.11,110.75-440.8,44.91l68.88-135.44c68.24,7.62,122.29-5.25,160.84-38.34
								c49.69-42.64,57.11-104.16,57.11-137.04c0-54.52-36.96-83.79-71.29-87.91c-35.3-4.25-65.56,15.78-73.6,48.69
								c-10.81,44.31,17.38,60.22,30.92,67.87c3.17,1.79,7.95,4.49,8.8,5.58c0,0,0.24,0.87-0.04,3.11
								c-0.17,1.38-3.27,6.53-14.83,11.97c-31.33,14.75-89.47,15.19-128.79-9.82c-29.98-19.07-77.97-74.31-87.31-148.3
								c-8.17-64.73,15.07-126.76,69.08-184.36c68.53-73.11,152.57-112.91,236.53-112.37c77.13,0.59,150.64,35.06,207,97.06
								C2182.76,2284.17,2218.57,2415.39,2208.71,2541.2z"/>
						</g>
					</g>
				</g>
			</g>
			<g class="st1">
				<g>
					<g>
						<g>
							<g>
								<g>
									<path class="st5" d="M332.49,2550.97L332.49,2550.97c-31.88,122.49-78.76,276.5-35.34,338.53
										c52.24,74.63,237.68,82.63,336.2-105.57c-22.71-31.66-90.73-128.33-129.84-203.92
										C421.79,2543.18,332.49,2550.97,332.49,2550.97z"/>
								</g>
							</g>
						</g>
						<g>
							<g>
								<g>
									<path class="st5" d="M439.34,1626.45l-19.24,292.04c-4.49,51.64-10.33,111.1-16.96,172.43
										c7.99,31.93,45.78,146.69,186.67,208.63c182.6,80.28,520.18-55.83,634.45-135.54c99.46-69.38,192.19-173.43,229.46-268
										c-23.23-46.23-39.23-97.95-40.02-155.66L439.34,1626.45z"/>
								</g>
							</g>
						</g>
						<g>
							<g>
								<g>
									<path class="st6" d="M1453.72,1896.01c-37.26,94.57-130,198.63-229.46,268c-114.27,79.71-451.85,215.82-634.45,135.54
										c-140.89-61.94-178.68-176.7-186.67-208.63c-15.61,144.31-35.69,299.06-53.29,387.09c-4.41,22.07-10.55,46.81-17.36,72.95
										l0,0c0,0,89.3-7.79,171.03,29.04c39.1,75.59,107.13,172.27,129.84,203.92c0.84-1.61,1.69-3.19,2.52-4.83
										c52.82,55.62,135.49,120.44,280.41,127.96l844.49-419.02c-13.38-160.58-80.19-286.03-134.6-363.82
										C1588.91,2070.96,1504.21,1996.49,1453.72,1896.01z"/>
								</g>
							</g>
						</g>
					</g>
					<g class="st7">
						<g>
							<g>
								<path class="st8" d="M1524.2,2002.78c-26.03-29.93-97.96-119.42-97.96-119.42l-24.06,73.33
									c29.08,49.61,115.19,128.65,180.65,210.19c65.46,81.54,161.26,238.03,149.86,423.78c23.07-57.45,8.33-249.91-20.26-306.73
									C1683.84,2227.11,1550.23,2032.71,1524.2,2002.78z"/>
							</g>
						</g>
					</g>
					<g class="st7">
						<g>
							<g>
								<path class="st8" d="M383.72,2299.55c-5.02,46.1-27.6,223.63-46.42,273.88c-18.82,50.26-48.93,198.14-35.31,274.83
									c7.34-107.73,63.51-219.71,88-331.36c16.35-74.54,42.38-250.06,66.49-441.89l-36.38-45.31
									C420.1,2029.7,388.74,2253.45,383.72,2299.55z"/>
							</g>
						</g>
					</g>
					<g class="st10">
						<g>
							<g>
								<path class="st4" d="M451.22,2348.02l-5.7,48.63h-17.09c7.41,43.71,56.47,236.92,36.2,354.01
									c-20.27,117.09-129.37,148.36-162.64,97.6c16.91,76.37,126.13,103.67,217.64,57.1c91.5-46.57,126.89-22.19,126.89-22.19
									h140.75l34.62-209.19C795.62,2697.14,516.91,2653.13,451.22,2348.02z"/>
							</g>
						</g>
					</g>
					<g>
						<g>
							<g>
								<path class="st4" d="M1644.69,2111.29c-13.21-18.88-31.15-39.25-51.93-62.84c-65.27-74.12-154.67-175.63-156.48-308.41
									l-0.28-19.82L418.36,1601.26l-20.76,315.27c-15.48,178.01-45.24,433.74-69.9,557.05c-6.17,30.84-15.84,67.29-26.07,105.88
									c-33.65,126.86-68.44,258.04-22.98,323c25.94,37.05,75.54,58.93,131.89,58.93c5.18,0,10.42-0.19,15.7-0.56
									c85.64-6.09,162.64-58.3,214.86-144.59c53.1,50.06,136.43,106.24,274.02,113.38l5.91,0.3l863.53-428.46l-1.27-15.29
									C1769.46,2320.32,1700.29,2190.76,1644.69,2111.29z M911.62,2884.18c-138.03-8.83-214.04-72.89-259.36-120.62l-22.05-23.22
									l-14.47,28.57c-63.16,124.69-155.8,144.25-192.69,146.88c-46.23,3.31-88.4-12.11-107.39-39.22
									c-33.43-47.76,1.53-179.59,29.63-285.52c10.42-39.28,20.26-76.38,26.7-108.6c24.98-124.91,55.02-382.78,70.64-562.47
									l17.68-268.33l931.64,108.9c9.76,139.3,100.13,241.91,166.92,317.76c19.88,22.57,37.05,42.07,48.81,58.88
									c50.7,72.46,113.36,188.99,129.16,337.54L911.62,2884.18z"/>
							</g>
						</g>
					</g>
				</g>
				<g>
					<g>
						<g>
							<g>
								<path class="st4" d="M442.68,2195.74c0,0-32.61,152.28,0.83,280.85c35.24,116.51,96.1,220.34,182.18,310.46l25.4-24.27
									C507.42,2612.38,437.3,2421.6,442.68,2195.74z"/>
							</g>
						</g>
					</g>
				</g>
				<g>
					<g>
						<g>
							<g>
								<path class="st4" d="M360.65,2793.02c0,0-80.23,79.17-11.26,152.29l22.38-27.07
									C337.78,2890.13,352.22,2818.32,360.65,2793.02z"/>
							</g>
						</g>
					</g>
				</g>
				<g>
					<g>
						<g>
							<g>
								<path class="st4" d="M433.7,2942.94l31.35-15.85c-13.31-26.34-10.63-89.16,0.9-122.12
									C465.95,2804.98,402.54,2860.23,433.7,2942.94z"/>
							</g>
						</g>
					</g>
				</g>
			</g>
			<g class="st1">
				<g>
					<g>
						<g>
							<g>
								<path class="st14" d="M1421.22,1770.45l-311.13,36.8c-60.22,36.8-260.94,86.98-404.8,58.54
									c-143.85-28.44-212.43-167.27-212.43-167.27l-55.2-18.4c-36.8,20.07-43.49,68.58-30.11,103.71
									c-35.13,25.09-40.15,60.22-40.15,112.07c0,51.85,51.85,118.76,90.33,165.6c38.47,46.84,133.82,168.95,173.96,227.49
									c40.15,58.54,48.51,31.78,58.54,20.07c10.04-11.71,83.64-71.93,152.22-83.64c68.58-11.71,187.34-30.11,282.69-80.29
									c95.35-50.18,185.67-108.73,259.27-202.4C1458.02,1849.07,1454.67,1795.54,1421.22,1770.45z"/>
							</g>
						</g>
					</g>
					<g class="st10">
						<g>
							<g>
								<path class="st4" d="M1115.5,1922.65l-30.5,5.87c0,0-49.55,18.82-72.14,60.22c25.09,23.84,173.13-54.57,211.39-88.45
									c-28.85,19.45-82.8,37.64-102.87,40.77C1101.31,1944.21,1094.41,1934.8,1115.5,1922.65z"/>
							</g>
						</g>
					</g>
					<g class="st7">
						<g>
							<g>
								<path class="st13" d="M1020.74,1865.02c-9.75-5.49-15.61-15.11-15.61-15.11s-359.07,78.17-443.2-61.28l-23.07,9.23
									l-26.2-6.13c17.83,31.41,59.76,84.68,166.13,115.13c106.37,30.45,307.58,6.84,411.47-43.45
									C1080.6,1860.05,1060.6,1853.36,1020.74,1865.02z"/>
							</g>
						</g>
					</g>
					<g class="st7">
						<g>
							<g>
								<path class="st13" d="M425.27,1763.89l-17.72,19.95c0,0-25.09,36.17-22.58,86.98c2.51,50.81,29.24,79.14,38.85,92.1
									c-11.77-33.29-16.27-98.38,1.24-119.75c0,0,48.98,31.41,97.9,63.68c-62.73-71.85-66.48-129.55-66.48-129.55L425.27,1763.89z
									"/>
							</g>
						</g>
					</g>
					<g>
						<g>
							<g>
								<g>
									<g>
										<path class="st13" d="M708.67,2022.31c-35.89-12.28-73.86,10.29-76.89,45.06c-3.03,34.77,20.06,53.33,63.98,52.01
											c21.26-0.64,39.89,10.14,46.82,11.47c6.93,1.33,37.55-1.69,28.54-36C762.11,2060.54,744.56,2034.59,708.67,2022.31z"/>
									</g>
								</g>
							</g>
						</g>
						<g class="st10">
							<g>
								<g>
									<path class="st4" d="M571.35,2052.25c0,0,21.28,48.05,28.86,77.25c75.58,66.04,182.78,24.26,271.46-17.14
										c15.42-10.34,35.29-21.41,61.51-38.06C679.3,2159.01,614.97,2096.63,571.35,2052.25z"/>
								</g>
							</g>
						</g>
						<g class="st10">
							<g>
								<g>
									<path class="st4" d="M1001.37,2145.14c-20.36,4.16-41.75,7.9-62.15,10.76c-13.13,1.85-25.84,3.33-37.61,4.33
										c-70.56,13.96-135.78,57.47-197.98,76.91c-88.96,27.08-123.77-120.39-170.49-164.98c-16.05-15.32-31.52-30.56-45.29-42.46
										c-36.8-31.81-102.04-100.34-97.82-140.54l-18.96-45.99c-49.01,62.34,41.51,159.79,79.11,209.07
										c37.6,49.28,218.89,247.31,218.89,247.31s39.58-22.26,103.7-59.06c64.12-36.8,201.84-43.49,274.46-78.82
										c72.62-35.33,255.23-143.65,310.27-249.5C1283.03,2021.95,1083.33,2128.42,1001.37,2145.14z"/>
								</g>
							</g>
						</g>
						<g>
							<g>
								<g>
									<g>
										<path class="st13" d="M778.74,1969.79c-13.19-3.91-27.81,6.15-32.64,22.46c-4.83,16.31,1.95,32.7,15.14,36.61
											c13.19,3.91,27.81-6.15,32.64-22.46C798.72,1990.09,791.94,1973.69,778.74,1969.79z"/>
									</g>
								</g>
							</g>
						</g>
						<g>
							<g>
								<g>
									<g>
										<path class="st13" d="M698.24,1932.92c-13.52,2.55-21.93,18.17-18.77,34.89c3.15,16.72,16.67,28.2,30.19,25.65
											c13.52-2.55,21.93-18.17,18.77-34.89C725.28,1941.86,711.76,1930.37,698.24,1932.92z"/>
									</g>
								</g>
							</g>
						</g>
						<g>
							<g>
								<g>
									<g>
										<path class="st13" d="M614.35,1935.97c-12.04,6.66-15.12,24.13-6.87,39.02c8.24,14.88,24.68,21.55,36.72,14.88
											c12.04-6.66,15.12-24.13,6.88-39.02C642.83,1935.97,626.39,1929.31,614.35,1935.97z"/>
									</g>
								</g>
							</g>
						</g>
					</g>
					<g>
						<g>
							<g>
								<path class="st4" d="M1434.77,1752.39l-7.23-5.43l-325.01,38.44l-4.22,2.58c-56.24,34.37-251.36,82.8-388.64,55.66
									c-130.37-25.77-195.53-153.05-196.58-155.14l-4.16-8.42l-73.46-24.49l-8.63,4.71c-43.02,23.46-54.64,73.89-45.19,115.64
									c-33.78,32-36.83,75-36.83,119.96c0,56,45.88,119.58,95.46,179.93c38.12,46.4,132.67,167.42,172.79,225.93
									c22.05,32.15,39.25,45.99,57.51,46.25c0.18,0,0.35,0,0.53,0c18.51,0,28.84-14.17,33.83-21.01c0.83-1.15,1.63-2.27,2.45-3.24
									c7.88-9.11,76.73-65.46,138.87-76.07l10.29-1.74c69.27-11.74,185.21-31.39,279.12-80.82
									c86.63-45.59,186.04-106.01,266.51-208.43c47.44-60.38,68.83-111.23,63.59-151.15
									C1462.91,1783.84,1452.19,1765.46,1434.77,1752.39z M1366.67,1928.79c-75.23,95.75-169.62,153-252.03,196.37
									c-87.54,46.07-199.02,64.97-265.63,76.26l-10.34,1.76c-75.7,12.92-154.4,78.18-165.56,91.2c-1.35,1.57-2.68,3.33-4.03,5.18
									c-3.78-3.58-9.9-10.43-18.74-23.33c-40.81-59.5-136.58-182.12-175.14-229.05c-25.49-31.04-85.19-103.72-85.19-151.27
									c0-48.63,4.59-75.06,30.69-93.69l14.18-10.13l-6.2-16.28c-9-23.64-6.25-54.58,12.43-70.73l36.14,12.05
									c18.29,32.38,90.32,144.47,223.7,170.84c146.84,29.02,348.65-20.59,416.51-58.83l296.22-35.03
									c4.06,4.79,6.43,10.44,7.34,17.34C1423.01,1826.86,1418.65,1862.62,1366.67,1928.79z"/>
							</g>
						</g>
					</g>
				</g>
				<g>
					<g>
						<g>
							<g>
								<path class="st4" d="M571.35,2052.25c0,0,17.75,130.24,103.84,127.19c117.93-4.18,257.98-105.14,257.98-105.14
									c-76.01,38.78-203.28,70.01-257.98,70.01C631.93,2144.31,603.72,2104.41,571.35,2052.25z"/>
							</g>
						</g>
					</g>
				</g>
				<g>
					<g>
						<g>
							<g>
								<path class="st4" d="M1030.11,1979.8c6.3-12.98,38.21-41.88,85.39-57.15c0,0-85.69-11.69-118.08,44.7
									c-7.73,13.46-3.34,25.16-0.05,31.75c2.62,5.24,8.43,12.01,21.22,14.48c3.45,0.67,7.39,1,11.81,1
									c60.2-0.01,207.22-62,350.63-189.18l-23.31-26.28C1202.7,1936.6,1064.75,1980.94,1030.11,1979.8z"/>
							</g>
						</g>
					</g>
				</g>
				<g>
					<g>
						<g>
							<g>
								<path class="st4" d="M428.88,1777.31l-32.61,13.05c14.92,37.31,63.88,107.97,135.38,170.44
									c61.58,53.79,182.28,38.09,182.28,38.09C546.14,1980.25,449.5,1828.87,428.88,1777.31z"/>
							</g>
						</g>
					</g>
				</g>
			</g>
			<g class="st1">
				<g>
					<g>
						<g>
							<g>
								<path class="st5" d="M851.66,2646.79l-5.15-2.59c-6.02,46.94-14.19,92.49-24.96,134.9
									c-40.15,158.07-27.6,243.38,163.09,228.33c171.24-13.52,261.53-263.74,283.62-340.08c-8.13,1.02-16.41,2.18-25.04,3.6
									C927.1,2723.31,851.66,2646.79,851.66,2646.79z"/>
							</g>
						</g>
					</g>
					<g>
						<g>
							<g>
								<path class="st5" d="M855.61,2310.15c41.8-8.18,83.75-19.49,124.01-32.6l-127.86-15.68
									C853.26,2277.56,854.53,2293.7,855.61,2310.15z"/>
							</g>
						</g>
					</g>
					<g class="st10">
						<g>
							<path class="st4" d="M410.65,2018.93v63.32c0,0,78.59,78.87,102.02,106.31c23.43,27.43,102.31,181.75,153.74,178.32
								c51.44-3.43,57.45-31.77,129.03-67.32c71.58-35.55,155.26-35.13,248.87-66.2c93.61-31.08,299.87-131.38,405.17-321.18
								c-9.25-11.44-18.36-35.67-18.36-35.67s-114.88,185.14-269.19,254.6c-154.31,69.46-424.82,87.75-491.04,194.34
								C604.69,2251.99,410.65,2018.93,410.65,2018.93z"/>
						</g>
					</g>
					<g>
						<g>
							<g>
								<path class="st6" d="M979.63,2277.55c-40.26,13.11-82.21,24.42-124.01,32.6c6.88,104.83,5.08,223.39-9.1,334.05l5.15,2.59
									c0,0,75.44,76.52,391.57,24.16c8.63-1.43,16.91-2.58,25.04-3.6c2.51-8.67,4.15-15.14,4.92-18.72
									c7.53-35.13,17.57-212.8,15.06-333.24L979.63,2277.55z"/>
							</g>
						</g>
					</g>
					<g class="st7">
						<g>
							<g>
								<path class="st8" d="M870.48,2366.36l-40.2,375.11l-27.31,176.42c0,0,11.05,35.6,39.59,38.43
									c-15.38-29.79-4.7-81.86,14.62-151.33c19.32-69.47,38.39-151.33,55.99-276.78c17.6-125.45-28.89-228.33-61.4-266.33
									L870.48,2366.36z"/>
							</g>
						</g>
					</g>
					<g class="st10">
						<g>
							<g>
								<path class="st4" d="M1288.25,2315.39c-1.48,63.89-89.5,339.62-163.02,462.79c-73.52,123.18-188.9,224.86-282.67,178.12
									c35.99,45.58,103.03,91.46,227.44,22.75c124.41-68.71,220.75-404.03,227.44-470.93c6.69-66.91,0-88.92,0-88.92
									L1288.25,2315.39z"/>
							</g>
						</g>
					</g>
					<g>
						<g>
							<g>
								<path class="st4" d="M1251.1,2643.9c-0.7,3.25-84.51,326.51-268.24,341.02c-73.31,5.8-119.2-3.57-140.31-28.6
									c-23.01-27.29-22.75-78.62,0.88-171.65c19.14-75.35,33.79-152.58,43.52-227.43c24.92-169.55-35.19-295.37-35.19-295.37
									c15.65,164.37-16.65,372.09-52.1,511.68c-20.47,80.61-33.63,162.07,8.36,211.88c26.36,31.26,70.16,46.29,136.26,46.29
									c13.15,0,27.19-0.59,42.14-1.77c218.44-17.24,308.08-373,308.85-376.58c46.06-169.15-7.02-337.97-7.02-337.97
									C1290.67,2431.66,1259.06,2606.78,1251.1,2643.9z"/>
							</g>
						</g>
					</g>
				</g>
				<g>
					<g>
						<g>
							<g>
								<path class="st4" d="M897.74,2872.19c0,0-72.43,66.61-6.38,148.11l21.81-27.54
									C888.09,2972.91,884.95,2914.39,897.74,2872.19z"/>
							</g>
						</g>
					</g>
				</g>
				<g>
					<g>
						<g>
							<g>
								<path class="st4" d="M1013.16,2877.24c0.42-2.91,0.79-5.54,1.09-7.84c0,0-53.45,59.54-27.18,124.04
									c4.34,10.65,14.2,18,25.52,23.42l15.18-31.68C999.65,2971.7,1009.47,2903.07,1013.16,2877.24z"/>
							</g>
						</g>
					</g>
				</g>
			</g>
			<g class="st1">
				<g>
					<g>
						<g>
							<g>
								<path class="st5" d="M1411.92,2661.15l-164.26-70.48l-17.1-10.21c-29.54,0.71-88.7,13.74-132.18,98.29
									c-60.22,117.09-36.8,319.49,85.31,403.13c122.11,83.64,260.94,10.04,297.74-45.16c3.85-5.77,7.6-11.18,11.3-16.38
									c0,0,0-0.01-0.01-0.01C1559.49,2818.15,1411.92,2661.15,1411.92,2661.15z"/>
							</g>
						</g>
					</g>
					<g>
						<g>
							<g>
								<path class="st6" d="M1505.06,2471.21c-217.45-65.24-256.13,110.52-256.13,110.52s-6.99-1.54-18.36-1.27l17.1,10.21
									l164.26,70.48c0,0,147.56,157.01,80.81,359.16c0,0,0,0.01,0.01,0.01c31.68-44.54,57.88-68.75,77.35-81.52
									c21.75-14.26,70.67-48.04,130.89-172.24c60.22-124.2,43.23-245.21,35.86-291.84L1505.06,2471.21z"/>
							</g>
						</g>
					</g>
					<g class="st7">
						<g>
							<g>
								<path class="st8" d="M1257.19,2575.03c-71.83,20.07-214.28,74-185.71,310.49l32.22,38.95
									c-7.8-32.82-10.34-239.37,111.77-277.68c122.11-38.31,212.72,118.47,212.72,118.47v-50.9l-105.67-105.27
									c18.4-67.51,57.28-164.76,182.53-137.88C1374.39,2436.2,1312.29,2449.58,1257.19,2575.03z"/>
							</g>
						</g>
					</g>
					<g>
						<g>
							<g>
								<path class="st4" d="M1737.17,2477.57c7.5,47.4-1.21,165.09-56.5,279.13c-58.69,121.05-105.38,151.68-122.96,163.21
									c-30.14,19.77-62.12,54.85-95.06,104.25c-17.45,26.17-64.24,58.31-119.9,69.08c-36.45,7.03-91.42,7.57-146.29-30.02
									c-110.78-75.87-133.24-266.73-77.99-374.17c50.91-98.98,147.47-80.43,147.47-80.43l5-21.88
									c0.16-0.72,17.07-71.91,78.43-107.63c41.1-23.92,93.47-26.59,155.69-7.92c0,0-90.79-78.5-178.41-31.11
									c-58.01,31.37-83.47,88.7-93.94,117.72c-34.67,0.06-104.49,13.54-154.41,110.6c-64.84,126.07-38.5,342.27,92.63,432.08
									c46.85,32.09,93.68,41.69,132.98,41.69c17.52,0,33.56-1.91,47.41-4.59c71.37-13.81,126.21-54.33,148.9-88.37
									c36.81-55.21,65.05-80.26,82.26-91.54c20.43-13.4,74.69-49,138.82-181.28c60.22-124.2,69.16-250.98,60.47-305.89
									L1737.17,2477.57z"/>
							</g>
						</g>
					</g>
				</g>
				<g>
					<g>
						<g>
							<g>
								<path class="st4" d="M1256.88,2564.58l1.29,42.46c16.95,3.1,51.76,11.96,86.35,35.94c64.51,44.72,96.23,118.4,94.27,218.98
									c0,0,36.38-78.42,9.33-145.37C1393.62,2581.65,1258.66,2564.72,1256.88,2564.58z"/>
							</g>
						</g>
					</g>
				</g>
				<g>
					<g>
						<g>
							<g>
								<g>
									<path class="st9" d="M1245.24,2852.88c-35.2,9.57-53.97,53.29-41.91,97.66c12.06,44.37,50.37,72.58,85.58,63.01
										c35.21-9.57,53.97-53.29,41.91-97.66C1318.76,2871.52,1280.44,2843.31,1245.24,2852.88z"/>
								</g>
							</g>
						</g>
					</g>
					<g class="st10">
						<g>
							<g>
								<path class="st4" d="M1458.12,2774.08l-29.92-8.83c15.34,98.23-53.82,255.05-171.32,231.3
									c-86.32-17.45-121.69-67.62-148.7-148.29c6.44,177.89,125.7,257.02,234.57,244.99c66.02-7.3,110.8-57.72,142.04-116.77
									c31.24-59.05,72.93-56.56,130.47-135.65c57.55-79.09,102.14-181.21,100.36-312.64
									C1623.62,2837.65,1475.37,2815.33,1458.12,2774.08z"/>
							</g>
						</g>
					</g>
					<g>
						<g>
							<g>
								<g>
									<path class="st9" d="M1232.96,2717.47c-16.13,1.78-27.08,22.47-24.46,46.21c2.62,23.75,17.81,41.56,33.94,39.78
										c16.13-1.78,27.08-22.47,24.46-46.21C1264.28,2733.5,1249.09,2715.69,1232.96,2717.47z"/>
								</g>
							</g>
						</g>
					</g>
					<g>
						<g>
							<g>
								<g>
									<path class="st9" d="M1331.91,2737.57c-16.15-1.52-31.06,16.54-33.29,40.32c-2.23,23.79,9.05,44.3,25.21,45.81
										c16.15,1.52,31.06-16.54,33.29-40.32C1359.35,2759.6,1348.06,2739.09,1331.91,2737.57z"/>
								</g>
							</g>
						</g>
					</g>
					<g>
						<g>
							<g>
								<g>
									<path class="st9" d="M1153.54,2758.6c-16.13,1.78-27.08,22.47-24.46,46.22c2.62,23.75,17.81,41.56,33.94,39.78
										c16.13-1.78,27.08-22.47,24.46-46.22C1184.86,2774.63,1169.66,2756.82,1153.54,2758.6z"/>
								</g>
							</g>
						</g>
					</g>
				</g>
			</g>
		</g>
		<g id="Head_11_">
			<g>
				<g>
					<g>
						<path class="st15" d="M581.52,137.88c-140.51-73.6-210.76,5.02-242.54,185.67c-31.78,180.65,3.35,354.62,31.78,473.38
							l493.45-399.78C864.21,397.15,722.02,211.48,581.52,137.88z"/>
					</g>
				</g>
			</g>
			<g class="st7">
				<g>
					<g>
						<path class="st8" d="M581.52,137.88c-73.6-13.38-145.94-46.83-204.35,61.89c-58.4,108.72-51.31,245.04-51.31,245.04
							l23.22,24.87c0,0,32.13-306.29,127.47-298.77c95.34,7.53,191.94,99.11,277.25,212.02l79.57-13.76
							C833.38,369.17,655.12,151.26,581.52,137.88z"/>
					</g>
				</g>
			</g>
			<g>
				<g>
					<g>
						<radialGradient id="SVGID_1_" cx="599.6924" cy="462.4871" r="337.4752" gradientUnits="userSpaceOnUse">
							<stop  offset="0.5744" style="stop-color:#130C0E"/>
							<stop  offset="0.7977" style="stop-color:#130C0E"/>
							<stop  offset="1" style="stop-color:#130C0E"/>
						</radialGradient>
						<path class="st16" d="M591.99,117.88c-62.85-32.93-116.87-38.71-160.54-17.23c-56.13,27.6-93.66,99.24-114.72,219
							c-31.34,178.13,0.67,351.45,32.06,482.55l8.34,34.84l538.36-436.16l-13.36-17.45C876.2,375.68,735.27,192.93,591.99,117.88z
							 M384.59,756.66c-27.31-121.83-50.6-274.46-23.37-429.19c18.14-103.11,48.48-165.79,90.17-186.29
							c11.12-5.47,23.4-8.21,36.95-8.21c23.54,0,50.92,8.29,82.7,24.93c109.82,57.52,223.05,188.79,261.52,235.84L384.59,756.66z"/>
					</g>
				</g>
			</g>
			<g>
				<g>
					<g>
						<path class="st17" d="M419.26,286.75c-41.82,103.71-21.74,292.73,0,383.05l252.58-189.02c-31.78-63.56-58.54-120.44-92-162.25
							C546.39,276.72,461.08,183.05,419.26,286.75z"/>
					</g>
				</g>
			</g>
			<g class="st10">
				<g>
					<g>
						<path class="st4" d="M517.33,270.03c-47.88-31.78-63.52-45.26-98.06,16.73c-34.54,61.98-23.42,145.53-23.42,145.53
							l16.52-10.04c3.06-36.69,28.64-93.81,63.77-93.74c35.13,0.07,72.07,83.9,92.91,133.99l69.76-38.57
							C638.8,423.92,565.21,301.81,517.33,270.03z"/>
					</g>
				</g>
			</g>
			<g>
				<g>
					<g>
						
							<radialGradient id="SVGID_00000045604956445933096260000003393351235532850346_" cx="535.6418" cy="460.9478" r="202.7172" gradientUnits="userSpaceOnUse">
							<stop  offset="0.5744" style="stop-color:#130C0E"/>
							<stop  offset="0.7977" style="stop-color:#130C0E"/>
							<stop  offset="1" style="stop-color:#130C0E"/>
						</radialGradient>
						<path style="fill:url(#SVGID_00000045604956445933096260000003393351235532850346_);" d="M677.58,452.91
							c-28.41-57.15-52.95-106.51-84.02-145.35c-49.43-61.8-93.44-90.32-130.75-84.86c-25.85,3.79-45.98,23.13-59.84,57.48
							c-43.6,108.12-23.62,298.89-0.79,393.73l6.24,25.93l285.68-213.8l-6.56-13.12C684.18,466.18,680.86,459.51,677.58,452.91z
							 M430.6,639.39c-19.96-100.78-30.18-258.93,4.95-346.07c8.85-21.94,19.73-34.01,32.36-35.86c1.33-0.2,2.69-0.29,4.1-0.29
							c23.1,0,57.04,26,94.12,72.35c28.72,35.9,52.48,83.7,80,139.04c1.15,2.31,2.3,4.63,3.46,6.95L430.6,639.39z"/>
					</g>
				</g>
			</g>
			<g>
				<g>
					<g>
						<path class="st15" d="M1702.24,330.24c-135.49,11.71-289.38,56.87-426.54,132.15l354.62,577.09
							c170.62-132.14,225.82-433.23,225.82-553.67S1837.73,318.54,1702.24,330.24z"/>
					</g>
				</g>
			</g>
			<g class="st7">
				<g>
					<g>
						<path class="st8" d="M1825.15,353.37c-56.46-45.88-382.13-5.41-517.65,100.31l96.08,29.06
							c99.6-48.79,315.19-114.03,380.52-73.88c65.33,40.14,38.62,222.42,15.42,295.52C1842.75,601.22,1881.61,399.25,1825.15,353.37
							z"/>
					</g>
				</g>
			</g>
			<g>
				<g>
					<g>
						
							<radialGradient id="SVGID_00000164505976645270867130000013021463865330543783_" cx="1561.374" cy="689.3415" r="351.9183" gradientUnits="userSpaceOnUse">
							<stop  offset="0.5744" style="stop-color:#130C0E"/>
							<stop  offset="0.7977" style="stop-color:#130C0E"/>
							<stop  offset="1" style="stop-color:#130C0E"/>
						</radialGradient>
						<path style="fill:url(#SVGID_00000164505976645270867130000013021463865330543783_);" d="M1700.29,307.75
							c-145.23,12.55-299.88,60.44-435.46,134.84L1244.04,454l380.21,618.73l19.9-15.41c177.23-137.27,234.57-444.32,234.57-571.52
							c0-72.2-6.44-119.91-39.35-150.1C1811.81,310.44,1768.93,301.81,1700.29,307.75z M1635.86,1005.38L1307.5,471.01
							c123.72-64.22,266.98-107.06,396.68-118.26c54.2-4.68,87.46,0.48,104.65,16.25c20.58,18.88,24.72,58.69,24.72,116.81
							C1833.55,596.28,1783.26,872.03,1635.86,1005.38z"/>
					</g>
				</g>
			</g>
			<g>
				<g>
					<g>
						<path class="st17" d="M1692.2,474.1c-66.91,18.4-160.58,61.89-244.22,115.42l171.1,369.67
							c101.56-103.71,141.7-234.18,165.12-369.67C1807.62,454.03,1759.11,455.7,1692.2,474.1z"/>
					</g>
				</g>
			</g>
			<g class="st10">
				<g>
					<g>
						<path class="st4" d="M1661.55,483.63c-44.45,7.86-191.14,88.58-191.14,88.58l69.99,92.99c0,0,47.67-50.18,85.78-77.78
							c38.1-27.6,104.91-61.47,116.16-36.38c11.25,25.09,7.17,120.34,0,147.81l7.57,46.64c11.29-31.36,46.42-237.11,29.81-262.75
							C1763.12,457.1,1706,475.77,1661.55,483.63z"/>
					</g>
				</g>
			</g>
			<g>
				<g>
					<g>
						
							<radialGradient id="SVGID_00000021117409297896207950000016644205111456880027_" cx="1616.6888" cy="718.6707" r="234.4595" gradientUnits="userSpaceOnUse">
							<stop  offset="0.5744" style="stop-color:#130C0E"/>
							<stop  offset="0.7977" style="stop-color:#130C0E"/>
							<stop  offset="1" style="stop-color:#130C0E"/>
						</radialGradient>
						<path style="fill:url(#SVGID_00000021117409297896207950000016644205111456880027_);" d="M1687.55,457.16
							c-70.67,19.43-166.09,64.48-249.03,117.56l-12.91,8.26l188.22,406.67l17.8-18.18c111.69-114.05,148.55-255.58,169.88-378.97
							c11.93-69.04,6.95-109.18-16.15-130.14C1760.3,439.63,1721.73,447.76,1687.55,457.16z M1766.89,586.53
							c-19.23,111.24-51.41,237.65-142.87,341.53l-153.62-331.91c76.96-47.72,162.56-87.55,226.45-105.11
							c27.03-7.44,53.61-12.9,64.9-2.65C1770.47,496.29,1778.44,519.73,1766.89,586.53z"/>
					</g>
				</g>
			</g>
			<g>
				<g>
					<g>
						<path class="st5" d="M1307.5,1334.99c-136.44-23.53-203.7-75.05-263.18-143.04c-47.98-54.84-228.15-120.56-330.39-52.2
							c-102.23,68.35-210.5,14.66-323.94-19.51c-96.47-29.06-178.14,6.27-200.43,17.49c-4.51,14.68-8.32,28.35-11.17,40.59
							c-28.44,122.11-41.82,274.33,73.6,396.43c115.42,122.11,303.73,163.51,432.53,188.6l234.98,32.43
							c122.34,17.56,438.99,52.46,556.92-35.36c83.95-62.51,162.79-153.03,188.59-337.55
							C1564.42,1310.83,1436.42,1357.22,1307.5,1334.99z"/>
					</g>
				</g>
			</g>
			<g>
				<g>
					<g>
						<g>
							<g>
								
									<radialGradient id="SVGID_00000118382566193573883560000002514566367016709284_" cx="838.9664" cy="1427.7684" r="120.1431" gradientUnits="userSpaceOnUse">
									<stop  offset="0.5744" style="stop-color:#130C0E"/>
									<stop  offset="0.7977" style="stop-color:#130C0E"/>
									<stop  offset="1" style="stop-color:#130C0E"/>
								</radialGradient>
								<path style="fill:url(#SVGID_00000118382566193573883560000002514566367016709284_);" d="M840.91,1327.03
									c-39.3,17.94-92.74,44.3-138.71,10.95l-0.06,0.06c0,0,21.05,28.07,26.95,69.8c5.9,41.72,19.64,106.95,76.64,118.88
									c59.4,12.43,88.89-42.86,110.24-75.44c21.35-32.58,43.96-56.77,59.82-66.2C945.97,1405.94,859.48,1369.37,840.91,1327.03z"
									/>
							</g>
						</g>
						<g>
							<g>
								
									<radialGradient id="SVGID_00000112610605289389365860000004671458095054510214_" cx="833.5618" cy="1425.3033" r="135.4411" gradientUnits="userSpaceOnUse">
									<stop  offset="0.5744" style="stop-color:#130C0E"/>
									<stop  offset="0.7977" style="stop-color:#130C0E"/>
									<stop  offset="1" style="stop-color:#130C0E"/>
								</radialGradient>
								<path style="fill:url(#SVGID_00000112610605289389365860000004671458095054510214_);" d="M965.98,1373.61
									c-5.76,2.98-18.59,4.25-38.06-1.21c-33.04-9.27-64.57-31.35-73.35-51.36l-6.08-13.87l-17.79,8.12
									c-36.69,16.81-82.35,37.73-119.74,10.61l-10.82-7.75l-17.35,18.93l7.42,9.9c0.19,0.25,18.81,25.44,24.11,62.94
									c4.5,31.82,16.46,116.34,88.35,131.39c6.91,1.45,13.48,2.11,19.74,2.11c52.27-0.01,82.16-46.71,100.81-75.88
									c1.8-2.82,3.54-5.53,5.22-8.11c21.59-32.94,41.53-52.66,53-60.31c1-0.58,1.97-1.19,2.9-1.84l-16.17-25.05
									C967.45,1372.68,966.72,1373.13,965.98,1373.61z M903.49,1443.1c-1.75,2.66-3.54,5.47-5.41,8.38
									c-24.48,38.28-48.1,69.26-89.3,60.64c-45.55-9.53-58.62-61.85-64.92-106.37c-2.05-14.49-5.77-27.47-9.91-38.45
									c36.18,6.21,72.65-8.37,100.84-21.08c18.79,26.51,55.35,46.57,85.06,54.9c4.42,1.24,8.72,2.24,12.89,3.01
									C922.98,1415.35,913.01,1428.58,903.49,1443.1z"/>
							</g>
						</g>
					</g>
				</g>
				<g>
					<g>
						<g>
							<path class="st23" d="M825.22,1425.98c-49.89-38.12-89.25,17.69-89.31,17.77c9.15,36.09,27.63,74.13,69.82,82.96
								c47.53,9.95,75.89-23.46,96.27-53.9C893.41,1443.81,869.31,1415.75,825.22,1425.98z"/>
						</g>
					</g>
					<g class="st10">
						<g>
							<path class="st4" d="M750.04,1474.42c0,0,36.18-52.3,68.87-14.57c51.55-18.86,52.45,31.72,50.71,41.15
								c-1.74,9.43,32.39-28.18,32.39-28.18s-15.99-54.96-76.79-46.84c-58.61-21.81-89.31,9-89.31,9L750.04,1474.42z"/>
						</g>
					</g>
					<g>
						<g>
							
								<radialGradient id="SVGID_00000043439282196140714700000003368435651300549016_" cx="819.0195" cy="1470.5758" r="84.9259" gradientUnits="userSpaceOnUse">
								<stop  offset="0.5744" style="stop-color:#130C0E"/>
								<stop  offset="0.7977" style="stop-color:#130C0E"/>
								<stop  offset="1" style="stop-color:#130C0E"/>
							</radialGradient>
							<path style="fill:url(#SVGID_00000043439282196140714700000003368435651300549016_);" d="M828.16,1412.28
								c-15.41-10.31-31.52-14.26-47.97-11.75c-32.7,5.01-53.9,34.56-54.78,35.82l-3.41,4.84l1.45,5.74
								c13.45,53.06,40.25,84.14,79.65,92.39c6.74,1.41,13.14,2.05,19.23,2.05c49.26-0.01,77.5-42.17,90.36-61.38l3.36-5.02
								l-1.72-5.79C904.85,1437.17,876.74,1403.96,828.16,1412.28z M808.36,1514.13c-27.95-5.85-47.07-27.91-58.33-67.35
								c5.89-6.6,18.46-18.49,34.15-20.84c11.14-1.67,21.99,1.69,33.22,10.27l4.81,3.68l5.9-1.37
								c37.66-8.72,53.51,16.32,59.65,32.35C868.4,1498.64,845,1521.8,808.36,1514.13z"/>
						</g>
					</g>
				</g>
				<g>
					<g>
						<g>
							
								<radialGradient id="SVGID_00000034807774368610750120000012153586113689892007_" cx="824.4995" cy="1451.5776" r="21.0177" gradientUnits="userSpaceOnUse">
								<stop  offset="0.5744" style="stop-color:#130C0E"/>
								<stop  offset="0.7977" style="stop-color:#130C0E"/>
								<stop  offset="1" style="stop-color:#130C0E"/>
							</radialGradient>
							<polygon style="fill:url(#SVGID_00000034807774368610750120000012153586113689892007_);" points="813.71,1479.27 
								835.29,1428.09 815.15,1423.88 							"/>
						</g>
					</g>
				</g>
			</g>
			<g>
				<g>
					<g>
						<path class="st15" d="M1403.66,510.9c-122.94-95.34-421.52-195.71-684.98-107.89c-263.45,87.82-331.2,276.84-361.38,334.8
							c-27.15,52.16-127.23,268.18-167.74,399.91c22.29-11.22,103.96-46.55,200.43-17.49c113.44,34.17,221.71,87.87,323.94,19.51
							c102.23-68.35,282.4-2.64,330.39,52.2c59.48,67.99,126.75,119.51,263.18,143.04c128.92,22.23,256.92-24.15,357.52,87.88
							c10.45-74.69,12.22-164.77,2.1-274.66C1631.98,766.82,1526.6,606.24,1403.66,510.9z"/>
					</g>
				</g>
			</g>
			<g>
				<g>
					<g>
						<g>
							<g>
								
									<radialGradient id="SVGID_00000183229677725745915480000013835422096784511420_" cx="581.056" cy="989.2551" r="122.4555" gradientUnits="userSpaceOnUse">
									<stop  offset="0.5744" style="stop-color:#130C0E"/>
									<stop  offset="0.7977" style="stop-color:#130C0E"/>
									<stop  offset="1" style="stop-color:#130C0E"/>
								</radialGradient>
								<path style="fill:url(#SVGID_00000183229677725745915480000013835422096784511420_);" d="M606.7,855.09
									c-57.72-11.03-116,40.09-130.16,114.18c-14.16,74.1,21.15,143.1,78.88,154.14c57.72,11.03,116-40.09,130.16-114.18
									C699.74,935.14,664.42,866.13,606.7,855.09z"/>
							</g>
						</g>
					</g>
				</g>
				<g>
					<g>
						<g>
							<g>
								<path class="st13" d="M600.07,886.06c-19.09,5.02-29.13,29.72-22.44,55.17c6.69,25.45,27.59,42.01,46.68,36.99
									c19.09-5.02,29.13-29.72,22.44-55.17C640.05,897.6,619.15,881.04,600.07,886.06z"/>
							</g>
						</g>
					</g>
				</g>
				<g>
					<g>
						<g>
							<g>
								<path class="st27" d="M524.63,1040.89c-9.24,4.89-11.45,18.84-4.93,31.16c6.52,12.32,19.29,18.35,28.53,13.46
									c9.24-4.89,11.45-18.84,4.93-31.15C546.65,1042.03,533.87,1036,524.63,1040.89z"/>
							</g>
						</g>
					</g>
				</g>
			</g>
			<g>
				<g>
					<g>
						<path class="st13" d="M1310.58,841.22c-50.5-12.23-95.97-3.43-101.56,19.66c-5.59,23.09,30.81,51.72,81.31,63.94
							c50.5,12.23,95.97,3.43,101.56-19.66C1397.48,882.08,1361.08,853.45,1310.58,841.22z"/>
					</g>
				</g>
			</g>
			<g>
				<g>
					<g>
						
							<ellipse transform="matrix(0.1942 -0.981 0.981 0.1942 -221.6817 1222.8643)" class="st13" cx="633.53" cy="746.37" rx="43.01" ry="94.08"/>
					</g>
				</g>
			</g>
			<g class="st7">
				<g>
					<g>
						<path class="st8" d="M1046.44,369.23c-286.43-1.7-469.08,35.97-612.49,238.36s-269.62,589.02-275.17,715.49l22.55,22.13
							c0.14-35.09,26.75-193.25,98.26-314.94c71.51-121.69,126.14-329.66,253.76-445.85c94.3-85.85,198.78-138.23,343.43-145.63
							c27.02,17.89,92.55,37.15,170.49,48.39c76.5,11.04,143.68,11.28,175.43,2.28c133.63,46.28,220.93,120.85,285.06,229.21
							c88.81,150.08,140.83,519.14,140.82,689.17c12.97-242.07,15.73-497.03-63.16-645.55
							C1506.53,613.77,1332.87,370.93,1046.44,369.23z"/>
					</g>
				</g>
			</g>
			<g>
				<g>
					<g>
						
							<radialGradient id="SVGID_00000097468682129984623060000009066079378587974280_" cx="916.3314" cy="1093.8937" r="763.9518" gradientUnits="userSpaceOnUse">
							<stop  offset="0.5744" style="stop-color:#130C0E"/>
							<stop  offset="0.7977" style="stop-color:#130C0E"/>
							<stop  offset="1" style="stop-color:#130C0E"/>
						</radialGradient>
						<path style="fill:url(#SVGID_00000097468682129984623060000009066079378587974280_);" d="M1417.5,493.05
							c-129.86-100.71-434.74-201.86-705.96-111.47c-247.81,82.6-329.91,253.77-364.97,326.87c-3.56,7.41-6.63,13.82-9.29,18.93
							c-32.47,62.36-152.33,323.25-180.87,445.81c-26.74,114.8-47.61,282.92,79.18,417.06c41.28,43.67,89.08,80.12,139.39,107.96
							c151.69,83.95,575.89,119.4,575.89,119.4c-21.59-4.21-73.05-22.69-160.59-45.78c-172.68-45.55-434.09-119.74-521.87-212.6
							c-110.61-117.02-94.45-262.3-68.02-375.8c27.65-118.74,145.09-374.02,176.94-435.2c3-5.77,6.23-12.48,9.95-20.25
							c35.34-73.68,108.89-227,338.54-303.55c252.64-84.22,545.56,12.46,664,104.31c99.05,76.82,217.53,216.89,254.8,621.54
							c34.69,376.63-72.38,510.63-181.69,592.03c-66.43,49.47-399.84,39.34-610.81,31.66c-121.27-4.42-148.1,2.4-198.42-4.83
							c0,0,438.83,97.91,690.06,65.65c58.8-7.55,109.97-29.33,146.14-56.26c119.36-88.89,236.43-233.53,199.69-632.4
							C1650.73,724.17,1523.77,575.47,1417.5,493.05z"/>
					</g>
				</g>
			</g>
			<g class="st10">
				<g>
					<g>
						<path class="st4" d="M932.79,1348.09c-49.46-15.61-56.87-54.36-54.51-81.3c0,0-37.49-10.7-53.06-11.54
							c-11.82,54.49-63.88,67.83-102.15,57.29c-32.6-8.98-36.04-53.96-23.99-74.22l-30.58,32.54c0,0-3.35,15.33,18.4,52.21
							c21.75,36.88,91.16,25.85,154.01,3.95c24.21,55.22,137.04,66.22,156.28,41.97c19.24-24.25,20.91-46.84,6.98-73.71
							C1007.74,1333.19,982.25,1363.7,932.79,1348.09z"/>
					</g>
				</g>
			</g>
			<g class="st10">
				<g>
					<g>
						<path class="st4" d="M807.79,1669.52c-368.45-43.07-537.4-166.1-604.31-375.07c-7.35,141.67,58.1,275.18,182.1,357.19
							l42.99,55.79c60.22,41.82,109.93,14.87,183.43,48c73.5,33.13,357.46,73.45,437.14,48c79.68-25.45,91.06,10.53,99.43,22.29
							c8.36,11.76,37.05,7.66,122.56-10.24c57.45-12.03,43.84-59.75,117.44,2.14c26.76-15.05,42.69-25.41,42.69-25.41l-153.67,6.93
							c88.3-15.85,300.03-25.16,348.6-415.07C1527.01,1544.64,1284.4,1725.23,807.79,1669.52z"/>
					</g>
				</g>
			</g>
			<g>
				<g>
					<g>
						<g>
							<g>
								<path class="st13" d="M885.95,1119.77c-110.4-16.73-175.57,43.6-228.89,80.92l425.11,70.19
									C1055.41,1226.81,996.35,1136.49,885.95,1119.77z"/>
							</g>
						</g>
					</g>
					<g>
						<g>
							<g>
								
									<radialGradient id="SVGID_00000010281502628108830280000002748298870595496084_" cx="869.6148" cy="1186.292" r="161.7615" gradientUnits="userSpaceOnUse">
									<stop  offset="0.5744" style="stop-color:#130C0E"/>
									<stop  offset="0.7977" style="stop-color:#130C0E"/>
									<stop  offset="1" style="stop-color:#130C0E"/>
								</radialGradient>
								<path style="fill:url(#SVGID_00000010281502628108830280000002748298870595496084_);" d="M888.21,1104.88
									c-172.97-23.95-231.15,95.8-231.15,95.8c59.66-41.75,126.31-81.22,226.64-66.03c94.09,14.26,165.73,82.3,198.48,136.22
									C1082.17,1270.87,1054.9,1127.96,888.21,1104.88z"/>
							</g>
						</g>
					</g>
				</g>
				<g>
					<g>
						<g>
							<g>
								
									<radialGradient id="SVGID_00000093864189785287973280000008541513540077596328_" cx="861.6323" cy="1206.3461" r="78.7322" gradientUnits="userSpaceOnUse">
									<stop  offset="0.5744" style="stop-color:#130C0E"/>
									<stop  offset="0.7977" style="stop-color:#130C0E"/>
									<stop  offset="1" style="stop-color:#130C0E"/>
								</radialGradient>
								<path style="fill:url(#SVGID_00000093864189785287973280000008541513540077596328_);" d="M871.73,1141.93
									c-97.85-13.8-105.38,41.4-96.6,65.26c8.78,23.86,43.99,57.05,69.9,65.09c16.6,5.15,81.9-19.95,100.72-53.53
									C964.57,1185.17,929.53,1150.08,871.73,1141.93z"/>
							</g>
						</g>
					</g>
				</g>
				<g class="st12">
					<g>
						<g>
							<g>
								<path class="st13" d="M869.34,1162.93c-59.09-10.39-65.01-0.73-60.26,4.41c4.75,5.14,25.32,14.12,40.86,17.69
									c9.95,2.28,50.23,2.84,62.48-1.9C924.67,1178.39,904.25,1169.07,869.34,1162.93z"/>
							</g>
						</g>
					</g>
				</g>
				<g>
					<g>
						<g>
							<g>
								
									<radialGradient id="SVGID_00000165222422338679521210000001936417582358855047_" cx="843.555" cy="1323.0836" r="147.0173" gradientUnits="userSpaceOnUse">
									<stop  offset="0.5744" style="stop-color:#130C0E"/>
									<stop  offset="0.7977" style="stop-color:#130C0E"/>
									<stop  offset="1" style="stop-color:#130C0E"/>
								</radialGradient>
								<path style="fill:url(#SVGID_00000165222422338679521210000001936417582358855047_);" d="M1004.17,1295.29
									c6.02,18.28,5.2,34.37-2.44,47.83c-12.34,21.75-39.11,31.9-48.39,33.98c-14.29,3.19-53.82-5.16-101.28-59.71l-1.51-1.74
									l-9.85-6.05l-7.6,4.02c-63.89,33.85-103.8,27.44-115.98,19.32c-7.91-5.27-29.24-24.37-32.94-49.1
									c-2.29-15.3,2.73-30.61,14.91-45.51c0,0-51.91,2.49-44.69,49.97c5.2,34.2,31.34,59.91,46.02,69.7
									c23.04,15.36,70.55,19.58,136.42-12.51c42.76,46.02,82.53,62.35,110.1,62.35c4.69,0,9.04-0.48,12.98-1.36
									c17.22-3.86,50.34-18.74,67.99-48.5C1048.62,1323.08,1004.17,1295.29,1004.17,1295.29z"/>
							</g>
						</g>
					</g>
				</g>
				<g>
					<g>
						<g>
							<g>
								
									<radialGradient id="SVGID_00000027594095532045024590000001632790272012426649_" cx="845.1755" cy="1294.447" r="28.1909" gradientUnits="userSpaceOnUse">
									<stop  offset="0.5744" style="stop-color:#130C0E"/>
									<stop  offset="0.7977" style="stop-color:#130C0E"/>
									<stop  offset="1" style="stop-color:#130C0E"/>
								</radialGradient>
								<path style="fill:url(#SVGID_00000027594095532045024590000001632790272012426649_);" d="M825.22,1324.89l29.84,4.07
									c0.06-0.43,5.85-42.8,10.08-62.79l-29.46-6.23C831.22,1280.99,825.46,1323.11,825.22,1324.89z"/>
							</g>
						</g>
					</g>
				</g>
			</g>
			<g>
				<g>
					<g>
						<g>
							<g>
								
									<radialGradient id="SVGID_00000109724892769693310270000010100377192140622494_" cx="1239.464" cy="1128.1382" r="122.4542" gradientUnits="userSpaceOnUse">
									<stop  offset="0.5744" style="stop-color:#130C0E"/>
									<stop  offset="0.7977" style="stop-color:#130C0E"/>
									<stop  offset="1" style="stop-color:#130C0E"/>
								</radialGradient>
								<path style="fill:url(#SVGID_00000109724892769693310270000010100377192140622494_);" d="M1263.72,993.72
									c57.84,10.44,93.86,79.08,80.46,153.32c-13.4,74.24-71.14,125.96-128.98,115.52c-57.83-10.44-93.86-79.08-80.46-153.32
									C1148.14,1035,1205.89,983.28,1263.72,993.72z"/>
							</g>
						</g>
					</g>
				</g>
				<g>
					<g>
						<g>
							<g>
								<path class="st13" d="M1258.79,1025c16.01,11.54,16.51,38.2,1.13,59.55c-15.39,21.35-40.84,29.3-56.85,17.75
									c-16.01-11.54-16.51-38.2-1.13-59.55C1217.33,1021.41,1242.78,1013.46,1258.79,1025z"/>
							</g>
						</g>
					</g>
				</g>
				<g>
					<g>
						<g>
							<g>
								<path class="st27" d="M1273.57,1196.59c6.87,7.88,3.92,21.69-6.59,30.85c-10.51,9.16-24.59,10.19-31.46,2.31
									c-6.87-7.88-3.92-21.69,6.59-30.85C1252.62,1189.75,1266.71,1188.71,1273.57,1196.59z"/>
							</g>
						</g>
					</g>
				</g>
			</g>
		</g>
	</g>
</g>
<rect x="-1534.29" y="259.86" class="st15" width="452.57" height="836.73"/>
</svg>
